<svg viewBox="0 0 900 600" width="900" height="600" xmlns="http://www.w3.org/2000/svg" xmlns:xlink="http://www.w3.org/1999/xlink" version="1.1"><path d="M0 410L129 396L257 341L386 331L514 332L643 318L771 306L900 309L900 601L771 601L643 601L514 601L386 601L257 601L129 601L0 601Z" fill="#a1c7ff"></path><path d="M0 387L129 449L257 381L386 444L514 367L643 366L771 364L900 369L900 601L771 601L643 601L514 601L386 601L257 601L129 601L0 601Z" fill="#7aa6f8"></path><path d="M0 480L129 474L257 409L386 464L514 451L643 448L771 421L900 408L900 601L771 601L643 601L514 601L386 601L257 601L129 601L0 601Z" fill="#5c84ed"></path><path d="M0 487L129 473L257 523L386 474L514 508L643 487L771 517L900 509L900 601L771 601L643 601L514 601L386 601L257 601L129 601L0 601Z" fill="#4960de"></path><path d="M0 529L129 550L257 564L386 557L514 511L643 526L771 567L900 567L900 601L771 601L643 601L514 601L386 601L257 601L129 601L0 601Z" fill="#4338ca"></path></svg>
