<svg width="693" height="238" viewBox="0 0 693 238" fill="none" xmlns="http://www.w3.org/2000/svg">
    <path d="M147.026 204L140.119 192H153.439H165.279H177.119L171.199 204L165.279 192L159.359 204L153.439 192L147.026 204Z"
          fill="#4338CA"/>
    <path d="M140.119 192L147.026 204L153.439 192L159.359 204L165.279 192L171.199 204L177.119 192H140.119Z"
          stroke="#4338CA"/>
    <path d="M65.0257 203L58.119 191H71.439H83.279H95.119L89.199 203L83.279 191L77.359 203L71.439 191L65.0257 203Z"
          fill="#4338CA"/>
    <path d="M58.119 191L65.0257 203L71.439 191L77.359 203L83.279 191L89.199 203L95.119 191H58.119Z" stroke="#4338CA"/>
    <path d="M3.65697 118.054L10.2046 105.855L17.2344 117.169L23.4831 127.225L29.7318 137.282L16.4148 138.587L23.4831 127.225L10.166 128.53L17.2344 117.169L3.65697 118.054Z"
          fill="#4338CA"/>
    <path d="M10.2046 105.855L3.65697 118.054L17.2344 117.169L10.166 128.53L23.4831 127.225L16.4148 138.587L29.7318 137.282L10.2046 105.855Z"
          stroke="#4338CA"/>
    <path d="M230.075 117.2L223.527 105L216.497 116.314L210.249 126.371L204 136.428L217.317 137.732L210.249 126.371L223.566 127.676L216.497 116.314L230.075 117.2Z"
          fill="#4338CA"/>
    <path d="M223.527 105L230.075 117.2L216.497 116.314L223.566 127.676L210.249 126.371L217.317 137.732L204 136.428L223.527 105Z"
          stroke="#4338CA"/>
    <circle cx="117.119" cy="98.0002" r="80" fill="#00D4FF"/>
    <path fill-rule="evenodd" clip-rule="evenodd"
          d="M51.1191 159L57.3978 188.039H96.3978L97.7392 180.403C79.9932 177.249 63.9768 169.68 51.1191 159Z"
          fill="#00D4FF"/>
    <path fill-rule="evenodd" clip-rule="evenodd"
          d="M33.8212 81.8784L12.2588 102.317L32.5008 135.653L39.7237 132.836C33.2096 116.03 31.3664 98.4116 33.8212 81.8784Z"
          fill="#00D4FF"/>
    <path fill-rule="evenodd" clip-rule="evenodd"
          d="M199.316 82.0002L220.879 102.439L200.637 135.775L193.414 132.958C199.928 116.152 201.771 98.5334 199.316 82.0002Z"
          fill="#00D4FF"/>
    <path fill-rule="evenodd" clip-rule="evenodd"
          d="M183.739 160L177.461 189.039H138.461L137.119 181.403C154.865 178.249 170.881 170.68 183.739 160Z"
          fill="#00D4FF"/>
    <path fill-rule="evenodd" clip-rule="evenodd"
          d="M169.133 8.05314C167.927 24.1244 175.725 43.609 190.648 64.1058L138.527 28.9706L154.223 0.963318L169.133 8.05314Z"
          fill="#00D4FF"/>
    <path fill-rule="evenodd" clip-rule="evenodd"
          d="M69.2781 9.05314C70.4834 25.1244 62.6857 44.609 47.763 65.1058L99.8837 29.9706L84.1875 1.96332L69.2781 9.05314Z"
          fill="#00D4FF"/>
    <ellipse cx="83.4048" cy="48.4909" rx="7.28571" ry="7.49068" fill="#4338CA"/>
    <ellipse cx="137.405" cy="48.4909" rx="7.28571" ry="7.49068" fill="#4338CA"/>
    <path d="M108.619 102L114.619 108L120.119 102H108.619Z" fill="#4338CA" stroke="#4338CA"/>
    <path d="M103.051 147.259L107.379 116.248L115.697 112.059L122.151 118.31L117.824 149.321L109.705 154.997L103.051 147.259Z"
          stroke="#4338CA"/>
    <path d="M105.119 147V114.5L114.619 109L123.619 114.5V147L114.619 154L105.119 147Z" fill="#4338CA"
          stroke="#4338CA"/>
    <path d="M108.619 102L92.619 99.5001" stroke="#4338CA"/>
    <path d="M120.119 102L136.119 99.5001" stroke="#4338CA"/>
    <path d="M130.235 66.2883L140.119 79.3077L127.503 82.4042L130.235 66.2883Z" fill="#4338CA"/>
    <path d="M130.235 66.2883L140.119 79.3077L127.503 82.4042L130.235 66.2883Z" fill="#4338CA"/>
    <path d="M88.119 78.5001C110.725 84.9055 122.785 85.009 143.119 78.5001" stroke="#4338CA" stroke-width="2"/>
    <path d="M275.721 123.497H260.696V112.25H275.721C277.768 112.25 279.428 111.904 280.701 111.212C281.974 110.52 282.901 109.566 283.482 108.348C284.091 107.103 284.395 105.706 284.395 104.156C284.395 102.496 284.091 100.96 283.482 99.5493C282.901 98.1382 281.974 97.0037 280.701 96.146C279.428 95.2606 277.768 94.8179 275.721 94.8179H266.175V144H251.607V83.5703H275.721C280.563 83.5703 284.727 84.4557 288.213 86.2266C291.727 87.9974 294.425 90.4323 296.307 93.5312C298.188 96.6025 299.129 100.117 299.129 104.073C299.129 107.975 298.188 111.378 296.307 114.283C294.425 117.188 291.727 119.457 288.213 121.09C284.727 122.695 280.563 123.497 275.721 123.497ZM306.535 122.003V121.131C306.535 117.839 307.005 114.809 307.946 112.042C308.887 109.247 310.27 106.826 312.096 104.779C313.923 102.731 316.178 101.14 318.862 100.006C321.545 98.8438 324.644 98.2627 328.158 98.2627C331.7 98.2627 334.813 98.8438 337.497 100.006C340.208 101.14 342.477 102.731 344.303 104.779C346.13 106.826 347.513 109.247 348.454 112.042C349.395 114.809 349.865 117.839 349.865 121.131V122.003C349.865 125.268 349.395 128.298 348.454 131.092C347.513 133.859 346.13 136.28 344.303 138.355C342.477 140.403 340.222 141.994 337.538 143.128C334.854 144.263 331.755 144.83 328.241 144.83C324.727 144.83 321.615 144.263 318.903 143.128C316.191 141.994 313.923 140.403 312.096 138.355C310.27 136.28 308.887 133.859 307.946 131.092C307.005 128.298 306.535 125.268 306.535 122.003ZM320.522 121.131V122.003C320.522 123.691 320.646 125.268 320.895 126.734C321.144 128.201 321.559 129.487 322.14 130.594C322.721 131.673 323.51 132.517 324.506 133.126C325.502 133.735 326.747 134.039 328.241 134.039C329.708 134.039 330.925 133.735 331.894 133.126C332.89 132.517 333.678 131.673 334.259 130.594C334.841 129.487 335.256 128.201 335.505 126.734C335.754 125.268 335.878 123.691 335.878 122.003V121.131C335.878 119.499 335.754 117.963 335.505 116.524C335.256 115.058 334.841 113.771 334.259 112.665C333.678 111.53 332.89 110.645 331.894 110.008C330.898 109.372 329.653 109.054 328.158 109.054C326.692 109.054 325.461 109.372 324.465 110.008C323.496 110.645 322.721 111.53 322.14 112.665C321.559 113.771 321.144 115.058 320.895 116.524C320.646 117.963 320.522 119.499 320.522 121.131ZM373.416 80.25V144H359.388V80.25H373.416ZM407.924 132.711V114.2C407.924 112.927 407.744 111.834 407.384 110.921C407.025 110.008 406.457 109.303 405.683 108.805C404.908 108.279 403.87 108.016 402.57 108.016C401.518 108.016 400.619 108.196 399.872 108.556C399.125 108.915 398.558 109.455 398.171 110.174C397.783 110.894 397.589 111.807 397.589 112.914H383.603C383.603 110.838 384.059 108.915 384.972 107.145C385.913 105.346 387.241 103.783 388.957 102.455C390.7 101.126 392.775 100.103 395.182 99.3833C397.617 98.6362 400.329 98.2627 403.317 98.2627C406.886 98.2627 410.068 98.8576 412.863 100.047C415.685 101.237 417.913 103.022 419.545 105.401C421.178 107.753 421.994 110.714 421.994 114.283V132.669C421.994 135.602 422.16 137.83 422.492 139.352C422.824 140.846 423.294 142.16 423.903 143.294V144H409.875C409.211 142.617 408.712 140.929 408.38 138.937C408.076 136.917 407.924 134.841 407.924 132.711ZM409.626 116.566L409.709 124.037H403.525C402.224 124.037 401.117 124.216 400.204 124.576C399.319 124.936 398.599 125.434 398.046 126.07C397.52 126.679 397.133 127.371 396.884 128.146C396.663 128.92 396.552 129.736 396.552 130.594C396.552 131.424 396.746 132.171 397.133 132.835C397.548 133.472 398.101 133.97 398.793 134.33C399.485 134.689 400.26 134.869 401.117 134.869C402.667 134.869 403.981 134.579 405.06 133.998C406.167 133.389 407.011 132.656 407.592 131.798C408.173 130.94 408.463 130.138 408.463 129.391L411.535 135.118C410.981 136.225 410.345 137.346 409.626 138.48C408.934 139.614 408.062 140.666 407.011 141.634C405.987 142.575 404.728 143.35 403.234 143.958C401.74 144.54 399.928 144.83 397.797 144.83C395.03 144.83 392.484 144.263 390.16 143.128C387.864 141.994 386.024 140.417 384.64 138.397C383.257 136.349 382.565 133.998 382.565 131.341C382.565 129.017 382.98 126.942 383.81 125.116C384.668 123.29 385.955 121.74 387.67 120.467C389.386 119.194 391.571 118.226 394.228 117.562C396.884 116.898 400.011 116.566 403.608 116.566H409.626ZM446.416 110.216V144H432.429V99.0928H445.503L446.416 110.216ZM459.698 98.7607L459.449 111.751C458.895 111.696 458.148 111.627 457.207 111.544C456.267 111.461 455.478 111.419 454.842 111.419C453.209 111.419 451.798 111.613 450.608 112C449.446 112.36 448.478 112.914 447.703 113.661C446.956 114.38 446.402 115.293 446.043 116.4C445.711 117.507 445.559 118.793 445.586 120.26L443.054 118.6C443.054 115.584 443.345 112.844 443.926 110.382C444.535 107.892 445.393 105.747 446.499 103.949C447.606 102.123 448.948 100.725 450.525 99.7568C452.102 98.7607 453.873 98.2627 455.838 98.2627C456.529 98.2627 457.207 98.3042 457.871 98.3872C458.563 98.4702 459.172 98.5947 459.698 98.7607Z"
          fill="#4338CA"/>
    <path d="M532.158 107.56V118.766H501.155V107.56H532.158ZM506.011 83.5703V144H491.443V83.5703H506.011ZM541.953 83.5703V144H527.427V83.5703H541.953ZM574.843 144.83C571.19 144.83 567.925 144.263 565.048 143.128C562.17 141.966 559.735 140.375 557.743 138.355C555.779 136.336 554.271 134.011 553.219 131.383C552.195 128.754 551.684 125.973 551.684 123.041V121.463C551.684 118.171 552.14 115.127 553.053 112.333C553.966 109.51 555.322 107.048 557.121 104.945C558.919 102.842 561.174 101.209 563.886 100.047C566.597 98.8576 569.752 98.2627 573.349 98.2627C576.531 98.2627 579.38 98.7746 581.898 99.7983C584.416 100.822 586.547 102.289 588.29 104.198C590.061 106.107 591.403 108.417 592.316 111.129C593.257 113.84 593.727 116.884 593.727 120.26V125.946H557.038V117.188H580.072V116.109C580.1 114.615 579.837 113.342 579.284 112.291C578.758 111.24 577.983 110.437 576.959 109.884C575.936 109.33 574.691 109.054 573.224 109.054C571.702 109.054 570.443 109.386 569.447 110.05C568.479 110.714 567.718 111.627 567.164 112.789C566.639 113.924 566.265 115.238 566.044 116.732C565.822 118.226 565.712 119.803 565.712 121.463V123.041C565.712 124.701 565.933 126.209 566.376 127.564C566.846 128.92 567.51 130.082 568.368 131.051C569.253 131.992 570.305 132.725 571.522 133.25C572.767 133.776 574.179 134.039 575.756 134.039C577.665 134.039 579.546 133.679 581.4 132.96C583.254 132.241 584.845 131.051 586.173 129.391L592.523 136.944C591.61 138.245 590.31 139.504 588.622 140.721C586.962 141.939 584.97 142.935 582.645 143.709C580.321 144.457 577.72 144.83 574.843 144.83ZM613.833 99.0928L620.142 111.461L626.658 99.0928H641.184L629.397 120.965L641.807 144H627.156L620.142 130.719L613.169 144H598.518L610.928 120.965L599.182 99.0928H613.833Z"
          fill="#00D4FF"/>
    <path d="M655.814 104.924C655.814 103.213 656.432 101.787 657.667 100.646C658.903 99.4821 660.495 98.8999 662.444 98.8999C664.416 98.8999 666.008 99.4821 667.22 100.646C668.456 101.787 669.074 103.213 669.074 104.924C669.074 106.635 668.456 108.072 667.22 109.237C666.008 110.377 664.416 110.948 662.444 110.948C660.495 110.948 658.903 110.377 657.667 109.237C656.432 108.072 655.814 106.635 655.814 104.924ZM667.897 129.946L667.826 137.574C667.826 140.45 667.113 143.289 665.688 146.093C664.285 148.897 662.563 151.19 660.519 152.973L654.424 150.121C654.923 149.028 655.469 147.923 656.063 146.806C656.658 145.713 657.168 144.477 657.596 143.099C658.024 141.721 658.238 140.105 658.238 138.251V129.946H667.897Z"
          fill="#4338CA"/>
</svg>
